<?xml version="1.0" encoding="UTF-8"?><svg id="_レイヤー_2" xmlns="http://www.w3.org/2000/svg" xmlns:xlink="http://www.w3.org/1999/xlink" viewBox="0 0 1920 960"><defs><style>.cls-1{fill:#fff;}.cls-1,.cls-2{stroke-width:0px;}.cls-2{fill:url(#_名称未設定グラデーション_8);}</style><linearGradient id="_名称未設定グラデーション_8" x1="960" y1="515.67" x2="960" y2="1377.78" gradientUnits="userSpaceOnUse"><stop offset="0" stop-color="#000" stop-opacity="0"/><stop offset="1" stop-color="#000"/></linearGradient></defs><g id="ArtBoard"><g id="CopyWriting"><rect id="Grad" class="cls-2" width="1920" height="960"/><path class="cls-1" d="M153,805.15c0,3.17-1.83,8.78-4.63,14.51-3.17,6.34-5.61,9.88-11.22,16.71.12,1.34.61,3.29,1.95,6.59.12.49.24.85.24,1.1,0,1.58-3.41,4.51-5.49,4.51-1.22,0-1.59-.73-3.05-6.95-6.34,5.37-7.07,5.98-10.37,8.17-5.98,3.9-11.71,6.1-15.61,6.1-5,0-8.78-4.76-8.78-10.73,0-6.95,3.42-15.12,9.39-22.2,5.85-7.07,11.1-10.98,23.78-17.44.12-4.27.37-7.2.85-12.2-5,1.34-8.9,1.95-12.2,1.95-6.59,0-13.17-5.12-13.17-10.37,0-.49.24-.85.61-.85.12,0,.24.12.49.61.49.85,2.56,2.68,3.78,3.29,2.44,1.22,5.37,1.83,9.51,1.83,3.42,0,4.15-.12,11.22-1.83.24-3.9.85-9.76,1.22-13.29.12-1.46.24-2.56.24-3.42,0-4.76-2.68-7.07-7.93-6.95-.61,0-.85-.24-.85-.73,0-.98,4.27-2.44,7.56-2.44,5.24,0,11.34,3.78,11.34,7.07q0,.73-.98,3.66c-2.81,8.54-3.05,9.39-4.02,14.27,10.24-3.29,15.12-6.1,16.34-9.51,2.44.37,3.29.37,4.39.37,2.81.12,4.02.98,4.02,2.93,0,2.32-2.56,4.15-10.73,7.32-5.24,1.95-9.03,3.29-14.27,4.76-.61,4.02-.85,6.22-1.22,11.59,9.76-2.68,13.29-3.29,19.51-3.29,19.39,0,32.08,11.22,32.08,28.42s-14.64,31.95-39.76,38.17c-4.39,1.1-14.27,2.81-15.85,2.81-.98,0-1.59-.61-1.59-1.46,0-.37.37-.61.98-.73,5.73-1.1,11.1-2.56,16.59-4.63,19.27-7.32,29.64-20.12,29.64-36.47,0-14.03-9.39-22.93-24.15-23.17.12.85.12,1.46.12,1.95ZM129.09,809.42c-11.59,6.83-16.95,11.59-21.1,19.03-2.44,4.27-4.02,9.76-4.02,13.54,0,4.02,1.46,5.85,4.88,5.85,5.37,0,12.93-4.03,21.34-11.34-.98-10.49-1.1-14.88-1.1-27.08ZM135.19,807.47c-.24,3.42-.37,5.37-.37,9.76,0,5.12.12,6.95.85,13.78,7.44-9.64,13.54-21.71,13.66-27.2-6.1.85-8.54,1.59-14.15,3.66Z"/><path class="cls-1" d="M229.83,770.76c-.24,0-.49-.24-.49-.49,0-1.59,5.85-4.63,8.78-4.63,3.9,0,9.27,2.81,9.27,4.88,0,.24-.12.73-.24,1.22-.49,1.46-.98,3.17-1.71,6.34,6.59,3.78,10.37,5.37,12.81,5.37h.61c.37-.12.61-.12.61-.12.98,0,1.83.98,1.83,2.2,0,3.66-5,6.95-19.88,13.05-3.42,17.07-8.66,36.71-15.25,56.1-2.44,7.44-4.39,9.88-7.81,9.88-3.17,0-5.98-2.2-5.98-4.88,0-1.59.61-2.93,2.2-5.37,6.34-8.66,15.98-34.27,20.12-53.54-7.68,2.68-13.78,4.27-16.71,4.27-6.1,0-12.2-6.34-12.2-12.68,0-.37.24-.73.49-.73.37,0,.73.24,1.1.98,2.07,3.54,5.37,5.24,10.24,5.24,4.39,0,10.61-1.22,18.54-3.78,1.34-7.68,1.83-12.32,1.83-16.95,0-4.88-1.46-6.59-5.73-6.59-.49,0-1.59.12-2.07.24h-.37ZM252.15,786c0-.85-1.34-2.07-7.07-6.46-.24.85-.49,1.71-.49,1.95-.12.73-.24,1.46-2.07,10.73,5.12-2.2,9.64-5,9.64-6.22ZM261.06,828.33c0,.24,0,.49-.12.85-.73,2.07-1.22,5.61-1.22,8.05,0,10.12,6.34,14.15,22.44,14.15,5.24,0,9.76-.37,12.81-1.22.98-.24,1.71-.37,2.2-.37,2.68,0,5.12,2.32,5.12,4.88,0,4.03-3.78,5.49-14.76,5.49-21.47,0-31.59-6.1-31.59-18.9,0-5.24,2.68-13.66,4.39-13.66.37,0,.73.37.73.73ZM298.99,807.59c0,2.07-1.1,3.54-2.68,3.54-.37,0-.61-.12-1.22-.37-1.95-.85-4.76-1.46-7.2-1.46-3.05,0-8.66,1.34-12.44,2.93-.12.12-.37.12-.49.12-.24,0-.61-.37-.61-.61,0-.49,2.32-2.07,6.46-4.15,3.78-1.95,4.63-2.56,4.63-3.17,0-1.58-5.24-3.17-10.37-3.17-4.02,0-7.93.98-10.24,2.56q-.49.37-.73.37c-.24,0-.61-.37-.61-.61,0-.37,1.46-1.95,2.93-2.93,3.17-2.44,8.9-4.03,13.9-4.03,10,0,18.66,5.12,18.66,10.98Z"/><path class="cls-1" d="M348.02,787.1c-3.17,1.95-4.51,3.9-4.51,6.71,0,1.71.24,2.44.98,3.29.85.98,1.22,1.71,1.22,2.8,0,1.46,0,1.71-1.59,8.29-1.95,8.29-3.42,16.71-3.42,19.88s1.34,5.37,3.17,5.37c.98,0,2.44-.98,3.9-2.44,9.03-9.51,18.54-14.03,29.27-14.03,12.44,0,20.73,7.68,20.73,19.15,0,12.32-8.9,21.71-25.37,26.71-6.46,2.07-21.95,4.39-28.42,4.39-1.34,0-2.32-.73-2.32-1.71,0-.49.24-.49,1.83-.73,9.76-.85,19.03-3.17,26.47-6.71,10.85-5,18.29-14.27,18.29-22.93,0-8.17-5.61-13.29-14.64-13.29-6.83,0-13.54,2.93-19.39,8.54-3.42,3.29-4.88,6.1-6.1,11.46-.61,2.32-1.59,3.42-3.05,3.42-1.95,0-6.46-2.07-8.17-3.78-2.07-1.95-2.93-4.63-2.93-9.15,0-3.05.37-6.1,1.59-11.83,1.22-6.22,1.59-9.76,1.59-14.39,0-.73,0-2.68-.12-3.54-.12-1.95-.12-3.29-.12-3.9,0-6.71,4.02-11.83,11.59-14.76,3.66-1.46,8.78-2.56,12.56-2.81.85-.12,1.22-.24,1.22-.61,0-.24-.24-.37-.61-.49-7.56-1.34-12.2-6.83-12.2-14.39,0-2.68.73-4.39,1.83-4.39.49,0,.61.12.61.98.37,6.95,5.24,10.12,16.22,10.61,2.2,0,3.05.37,4.51,1.71,1.95,1.83,3.54,5.25,3.54,7.56,0,1.95-1.34,3.42-3.17,3.42-.37,0-1.1-.12-1.83-.24-4.27-.98-7.93-1.46-9.88-1.46-4.51,0-10.12,1.46-13.29,3.29Z"/><path class="cls-1" d="M500.35,836.01c0,2.07-2.81,6.59-6.95,11.34-9.64,10.73-20.61,16.1-33.42,16.1-8.66,0-15.49-2.56-20.37-7.68-5.12-5.49-7.32-12.68-7.32-23.78,0-7.32.12-8.9,2.44-40.74q.73-10.25.73-11.71c0-7.81-1.83-11.1-5.98-11.1-.73,0-1.1-.24-1.1-.61,0-1.34,2.56-2.44,5.37-2.44,6.22,0,12.2,7.07,12.2,14.64,0,1.83,0,1.95-1.83,9.27-2.32,9.76-5.12,32.44-5.12,41.83,0,17.08,6.71,24.76,21.95,24.76,8.78,0,18.17-3.42,26.71-9.88,4.39-3.17,8.29-6.95,10.37-9.88.49-.85.98-1.22,1.46-1.22s.85.49.85,1.1Z"/><path class="cls-1" d="M523.89,778.57c-.24.12-.37.12-.49.12-.24,0-.49-.24-.49-.49,0-.73,2.07-1.46,4.39-1.46,6.95,0,13.29,5.37,13.29,11.22,0,2.32-.37,4.51-1.59,9.88-1.71,7.56-2.2,12.32-2.2,19.39,0,9.27,1.83,16.22,5.61,21.34,2.07,2.8,4.88,4.88,6.71,4.88,1.59,0,1.95-.37,5.61-8.54,5.61-12.07,7.81-16.1,8.78-16.1.37,0,.85.49.85.98s-.12,1.1-.49,1.83c-2.56,5.85-5.49,17.32-5.49,21.83,0,2.93.85,5.85,2.2,7.68.73,1.22.85,1.34.85,1.95,0,1.46-2.2,2.93-4.51,2.8-3.54-.12-9.03-2.44-12.81-5.37-8.78-6.83-13.9-20.86-13.9-37.56,0-5.25.49-13.17,1.1-19.27.12-1.83.24-3.29.24-4.39,0-5.49-3.66-10.73-7.32-10.73h-.37ZM582.67,800.4c0-.98,3.9-1.83,8.17-1.83,13.54,0,27.69,12.93,27.69,25.37,0,4.88-2.93,8.29-7.07,8.29-2.2,0-3.05-1.1-3.05-4.15.12-14.88-10.37-27.08-23.29-27.08-2.32,0-2.44,0-2.44-.61Z"/><path class="cls-1" d="M655.73,866.01h-8.54c.24-4.51.37-11.71.37-21.34v-58.3c0-13.54-.12-15.49-.37-19.39,3.29.12,6.22.24,10.37.24h50.13c4.15,0,7.07-.12,10.37-.24-.24,3.9-.37,12.07-.37,19.39v56.47c0,10.25.12,16.83.37,21.47h-8.54v-7.81h-53.79v9.51ZM709.52,774.78h-53.79v32.69h53.79v-32.69ZM709.52,815.28h-53.79v33.54h53.79v-33.54Z"/><path class="cls-1" d="M811.23,776.61c3.9-4.88,7.2-10.37,10.85-17.81l8.42,3.29c1.1.49,1.46.73,1.46,1.34,0,.85-.24.98-2.8,1.83-1.1,1.22-1.59,1.71-5.73,6.95-.73.98-1.59,2.07-3.78,4.39h6.59c8.29,0,17.93-.24,24.15-.49-.12,4.39-.12,6.59-.12,9.27v4.15c0,3.05.12,6.71.24,10.61h-8.9c.24-3.54.37-7.81.37-10.61v-5.61h-87.08v5.61c0,2.8.12,7.07.37,10.61h-8.9c.24-3.9.37-7.56.37-10.61v-4.15c0-2.68-.12-4.88-.24-9.27,6.22.24,15.85.49,24.15.49h4.39c-2.81-4.88-6.1-9.51-9.51-13.78l5.98-3.54c5.24,5.37,7.2,8.05,13.29,17.32h9.64v-12.32c0-3.42-.12-6.1-.24-7.81l8.54.85c1.59.12,2.32.49,2.32,1.22s-.73,1.46-2.44,2.44v15.61h8.66ZM776.96,816.37v4.63h-8.05c.12-3.05.12-6.46.12-10.25v-8.29c0-6.83,0-9.27-.12-11.46,4.15.24,7.93.24,13.29.24h32.32c5.37,0,9.03,0,13.29-.24-.12,2.07-.24,4.51-.24,10.49v7.32c0,4.15.12,7.81.24,10.86h-8.17v-3.29h-17.81v10.61h17.44c6.46,0,13.42-.12,18.17-.49-.12,2.44-.24,8.9-.24,12.2v4.02c0,2.32,0,3.9.12,7.56,0,1.22.12,3.17.12,3.9,0,8.66-3.9,10.73-20.37,10.98-.37-4.76-.49-5.37-2.32-10,3.9.37,5.61.49,9.03.49,4.63,0,5.24-.61,5.24-5.12v-16.22h-27.2v17.56c0,7.93.12,14.15.37,17.81h-8.54c.24-4.27.24-10,.24-17.81v-17.56h-26.1v9.51c0,13.9.24,17.81.37,20.98h-9.03c.12-3.42.37-13.9.37-16.95v-3.17c0-12.93-.12-15.37-.24-18.17,4.76.37,11.71.49,18.17.49h16.47v-10.61h-16.95ZM819.65,809.06v-10.49h-42.69v10.49h42.69Z"/><path class="cls-1" d="M896.49,816.5q1.83-3.9,2.44-3.9c.49,0,.85.49.85,1.1,0,.24-.12.49-.85,2.68-4.27,11.1-7.2,24.64-7.2,32.69,0,3.42.49,5.85,1.71,8.42.49,1.1.61,1.46.61,1.95,0,1.95-1.95,4.03-3.66,4.03-2.68,0-5.85-2.56-8.17-6.34-3.9-6.71-5.61-14.76-5.61-27.2,0-10.37,1.83-21.59,5.98-37.08,1.59-5.49,2.07-8.78,2.07-12.2,0-5.12-1.22-8.17-4.27-10.37-.24-.24-.37-.37-.37-.61,0-.37.37-.61.73-.61,1.95-.24,7.32,2.68,9.51,5,2.44,2.68,3.9,5.85,3.9,8.66,0,2.2-.61,4.63-2.32,8.54-7.32,17.44-9.64,26.47-9.64,38.17,0,8.05,1.34,14.27,2.93,14.27.85,0,1.59-1.22,2.81-4.88.73-1.95,1.34-3.54,1.59-4.39l2.93-7.56,4.02-10.37ZM930.39,772.71c-.24.12-.37.12-.49.12s-.37-.24-.37-.37c0-.24.37-.61,1.59-1.58,2.07-1.83,4.27-2.81,6.1-2.81,2.2,0,5,1.34,8.42,4.02,1.59,1.22,2.2,2.2,2.2,3.42,0,.37-.12.73-.37,1.34-.85,1.59-1.1,2.44-1.71,5.37,3.66,3.17,6.46,4.39,10.12,4.39.85,0,1.59,0,2.07-.12.73-.12,1.34-.24,1.58-.24,1.59,0,4.02,2.2,4.02,3.66,0,1.71-2.2,4.39-5.24,6.22-3.78,2.44-6.83,3.78-13.42,5.85.12,1.71.12,3.29.24,3.78,0,1.22.24,3.9.61,8.05.85,10.37,1.34,17.44,1.34,23.05,14.88,4.15,23.17,10,23.17,16.34,0,2.68-1.95,4.63-4.63,4.63-1.83,0-3.17-.85-4.76-3.05-4.27-5.49-8.17-9.03-13.9-12.32-1.71,10.61-8.66,16.22-20.37,16.22-10.61,0-18.54-5.25-18.54-12.32s8.29-11.95,20.73-11.95c3.78,0,6.22.24,11.1,1.1,0-3.9,0-5.49-.37-11.83-.61-10.85-.73-12.81-.85-20.37-7.44,1.34-12.93,1.95-17.08,1.95s-7.2-1.59-9.03-4.63c-.98-1.59-1.83-4.88-1.83-6.95,0-.37.24-.73.61-.73s.61.24.73.85c1.22,2.93,5.12,4.63,11.1,4.63,4.15,0,9.88-.61,15.49-1.59-.12-9.88-.24-16.59-.61-18.29-.61-3.78-3.05-5.85-6.95-5.85h-.73ZM928.32,838.57c-8.66,0-14.64,3.17-14.64,7.68,0,3.42,3.66,5.61,9.27,5.61,11.1,0,15.12-3.05,16.34-11.95-4.88-.98-8.05-1.34-10.98-1.34ZM944.54,795.76c4.76-1.58,7.93-3.42,7.93-4.39,0-.37-.24-.73-.85-1.22-1.46-1.22-3.66-3.54-6.22-6.1-.61,4.15-.85,6.59-.85,11.71Z"/><path class="cls-1" d="M988.93,839.18c14.88,3.42,24.88,11.22,24.88,19.27,0,3.66-2.56,6.46-5.85,6.46-1.46,0-2.93-.61-3.9-1.71q-.98-1.22-2.44-6.59c-2.44-7.56-4.63-10.12-13.54-15.73l.85-1.71Z"/><path class="cls-1" d="M1093.21,834.06c-1.83,5.24-3.78,7.2-6.83,7.2-6.71,0-12.93-8.17-12.93-17.07,0-10.49,6.34-19.03,14.15-19.03,1.71,0,2.81.24,4.88,1.1-.12-3.29-.12-5.24-.12-7.44,0-2.8,0-3.29.12-6.22-18.17,2.81-29.52,5.85-39.64,10.73-2.8,1.34-3.54,1.59-4.88,1.59-1.83,0-4.39-1.46-7.32-4.15-2.07-1.95-2.8-4.39-2.8-9.15,0-.98.24-1.46.73-1.46.37,0,.49.12.61.61.85,3.17,4.02,5.24,8.05,5.24,2.68,0,4.88-.37,16.47-2.56,12.2-2.32,20.49-3.54,28.66-4.39-.61-15.98-.61-17.2-1.46-19.15-1.34-2.8-3.42-4.02-6.95-4.15-.49,0-.85-.12-.85-.49,0-.98,5.73-3.29,8.42-3.29,3.42,0,10.98,4.76,10.98,6.83,0,.49-.12.85-.73,2.2-1.83,4.39-2.07,5.25-2.93,17.2,6.34-1.1,7.81-1.22,16.34-2.44-2.32-2.07-4.88-3.9-7.81-5.98-1.1-.73-1.34-.98-1.34-1.34s.37-.73.85-.73c.24,0,.49.12.85.37,7.32,3.9,11.83,5.61,16.34,5.98,4.63.37,6.1.85,8.78,2.68,1.95,1.34,3.29,3.05,3.29,4.39,0,1.46-1.34,3.05-2.81,3.05-.37,0-1.1-.12-1.83-.24-4.63-1.22-16.46-2.56-21.83-2.56-2.93,0-5.37.12-11.1.73-.61,8.05-.73,10.61-.73,13.17v4.02c4.02,4.02,5,7.56,5,17.93,0,16.46-4.76,26.71-15.98,34.64-5.37,3.78-13.42,6.83-17.93,6.83-.61,0-1.1-.37-1.1-.98,0-.49.24-.61,1.22-.98,15.25-5.25,23.66-15.98,25.25-32.32l-1.1-.37ZM1082.24,812.23c-2.07,2.44-3.54,6.71-3.54,10.86,0,6.71,3.17,11.95,7.07,11.95,4.15,0,6.1-5.73,6.1-18.42,0-4.76-1.1-6.95-3.78-7.2-1.59-.12-4.39,1.22-5.85,2.8Z"/><path class="cls-1" d="M1175.42,766.61c-.37,0-.61-.12-.61-.37,0-1.22,2.93-2.32,6.34-2.32,5.85,0,13.9,6.22,13.9,10.85,0,1.46-.49,2.2-2.56,3.66-3.42,2.2-7.07,5.73-15.49,14.88-7.32,7.81-8.66,9.39-10.25,11.83-1.22,2.2-2.07,5.24-2.07,8.17,0,3.42.85,5.37,4.03,9.27,10.85,13.05,16.1,19.76,18.66,23.54,3.78,5.61,6.34,12.44,6.34,16.59,0,3.9-2.2,6.59-5.37,6.59s-4.15-1.58-5.49-7.56c-1.34-7.44-7.2-19.15-15.86-31.47-7.07-10.37-8.17-12.68-8.17-17.68,0-5.49,2.8-10.37,14.15-25,8.54-10.86,9.76-12.93,9.76-16.1,0-2.2-3.05-5-5.49-5-.24,0-.61,0-1.1.12h-.73ZM1213.1,802.84c0,2.2-1.95,4.27-4.15,4.27-1.22,0-1.71-.49-3.17-3.05-2.2-4.15-7.2-7.81-12.07-9.15-.37-.12-.49-.24-.49-.49,0-.61,1.83-.98,4.39-.98,7.81,0,15.49,4.63,15.49,9.39ZM1223.59,794.3c0,2.32-1.95,4.39-4.15,4.39-1.1,0-1.83-.61-2.68-2.2-1.95-4.15-6.95-8.17-11.95-9.88-.85-.12-1.1-.37-1.1-.73,0-.49,1.46-.85,4.03-.85,8.05,0,15.85,4.63,15.85,9.27Z"/><path class="cls-1" d="M1294.58,854.3c3.9,0,6.95,2.44,6.95,5.61s-2.56,4.88-7.32,4.88c-20.49,0-35.12-10.73-35.12-25.73,0-6.1,1.1-9.27,6.34-18.17-9.39,3.78-17.32,9.15-22.69,15.37-1.22,1.46-2.07,1.95-3.17,1.95-1.95,0-2.93-2.32-2.93-7.2,0-3.54.49-4.39,6.46-10.73,1.46-1.46,4.27-4.51,7.2-7.81,3.41-3.9,6.95-7.81,10.73-12.07l12.81-13.9c2.56-2.93,4.27-4.88,4.63-5.12,2.93-2.8,3.42-3.66,3.42-5.61,0-2.2-1.46-4.27-3.17-4.27-1.1,0-2.68.98-10.73,6.46-7.93,5.49-9.27,6.22-11.1,6.22-3.42,0-6.95-4.03-6.95-7.93,0-3.29.73-6.1,1.58-6.1.37,0,.49.12.49.85.24,2.56,2.93,5.25,5.24,5.25,1.95,0,13.54-4.88,20.98-8.78,1.1-.61,1.71-.73,2.81-.73,4.63,0,12.44,7.68,12.44,12.32,0,2.07-1.1,3.54-3.66,4.88-13.78,6.95-22.56,14.03-33.05,27.2-4.03,5-8.17,10.98-8.17,11.95,0,.37.73.73,1.46.73.85,0,1.58-.24,3.17-.98,11.34-5.49,21.47-9.51,33.54-13.17,10.25-3.17,15.98-4.63,17.56-4.63,1.83,0,4.02,1.46,5.98,3.9,1.83,2.2,2.8,3.9,2.8,4.88s-1.46,1.95-3.17,1.95c-.61,0-1.59-.12-2.68-.24-2.44-.37-5-.49-7.68-.49-10.12,0-21.71,2.68-27.44,6.22-4.88,3.05-8.66,10.61-8.66,17.44,0,5.12,2.8,9.76,7.56,12.44,3.78,2.07,10,3.29,17.32,3.29,1.71,0,2.56,0,4.03-.12h2.2Z"/><path class="cls-1" d="M1363.12,817.59q1.83-3.9,2.44-3.9c.49,0,.85.49.85,1.1,0,.24-.12.49-.85,2.68-4.27,11.34-7.2,24.64-7.2,32.69,0,3.42.49,5.85,1.71,8.42.49,1.1.61,1.46.61,1.95,0,1.95-1.95,4.03-3.66,4.03-2.68,0-5.85-2.56-8.17-6.34-3.9-6.71-5.61-14.76-5.61-27.2,0-10.37,1.83-21.71,5.98-37.08,1.58-5.49,2.07-8.66,2.07-12.2,0-5.12-1.22-8.17-4.27-10.37-.24-.24-.37-.37-.37-.61s.37-.61.73-.61c1.83-.24,7.32,2.68,9.51,5,2.44,2.68,3.9,5.85,3.9,8.78,0,2.07-.61,4.51-2.32,8.42-7.32,17.32-9.63,26.59-9.63,38.17,0,8.05,1.34,14.27,2.93,14.27.85,0,1.59-1.22,2.81-4.88.73-1.95,1.34-3.54,1.58-4.39l2.93-7.56,4.02-10.37ZM1397.03,773.81c-.24.12-.37.12-.49.12s-.37-.24-.37-.37c0-.24.49-.73,1.59-1.58,2.07-1.83,4.27-2.81,6.1-2.81,2.2,0,5,1.34,8.42,4.02,1.59,1.34,2.2,2.2,2.2,3.42,0,.49-.12.73-.37,1.34-.85,1.59-1.1,2.44-1.71,5.37,3.66,3.17,6.46,4.39,10.12,4.39.98,0,1.58,0,2.07-.12.73-.12,1.22-.12,1.59-.12,1.58,0,4.02,2.2,4.02,3.54,0,1.83-2.2,4.39-5.24,6.34-3.78,2.44-6.83,3.66-13.42,5.73.12,1.71.12,3.42.24,3.9,0,1.1.24,3.9.61,7.93.85,10.37,1.34,17.56,1.34,23.05,14.88,4.15,23.17,10,23.17,16.34,0,2.68-1.83,4.63-4.63,4.63-1.83,0-3.17-.85-4.76-3.05-4.15-5.49-8.17-8.9-13.9-12.32-1.71,10.61-8.66,16.22-20.37,16.22-10.73,0-18.54-5.25-18.54-12.32s8.29-11.95,20.86-11.95c3.54,0,6.22.24,10.98,1.1,0-3.9,0-5.49-.37-11.83-.61-10.85-.73-12.81-.85-20.37-7.2,1.34-12.81,1.95-17.07,1.95s-7.2-1.46-9.03-4.63c-.98-1.59-1.83-4.88-1.83-6.95,0-.37.24-.73.61-.73s.49.24.73.73c1.22,3.05,5.12,4.76,11.1,4.76,4.03,0,10-.61,15.49-1.46-.12-10-.24-16.71-.61-18.42-.61-3.78-3.05-5.85-6.95-5.85h-.73ZM1394.95,839.67c-8.66,0-14.64,3.17-14.64,7.68,0,3.42,3.66,5.73,9.27,5.73,11.1,0,15.12-3.05,16.34-12.07-4.63-.98-8.05-1.34-10.98-1.34ZM1411.17,796.86c4.76-1.58,7.93-3.29,7.93-4.39,0-.37-.24-.73-.85-1.1-1.22-1.1-3.78-3.54-6.22-6.22-.61,4.27-.85,6.59-.85,11.71ZM1435.81,776.25c0,2.2-2.07,4.27-4.27,4.27-.98,0-1.59-.49-2.2-1.59-2.81-5.24-7.32-8.9-13.05-10.61-.37,0-.49-.12-.49-.37,0-.61,1.34-.98,3.66-.98,8.54,0,16.34,4.39,16.34,9.27ZM1445.81,768.2c0,2.07-2.2,4.27-4.27,4.27-1.1,0-1.83-.49-2.56-1.95-2.07-4.51-7.32-8.78-12.68-10.37-.73-.12-.85-.24-.85-.61,0-.49,1.95-.85,4.27-.85,8.17,0,16.1,4.63,16.1,9.51Z"/><path class="cls-1" d="M1476.67,827.59q4.63-12.44,5.37-12.44c.49,0,.98.61.98,1.1,0,.24,0,.37-.12.73-.49.85-2.32,7.07-3.17,10.25-1.95,7.56-3.29,16.1-3.29,21.34,0,2.56.37,4.51,1.46,7.07.37,1.1.49,1.59.49,2.32,0,2.56-1.71,4.51-3.78,4.51-6.95,0-13.66-16.22-13.66-33.17,0-8.05,1.1-15,5.49-33.91,1.83-8.17,2.32-10.86,2.32-14.39,0-4.88-1.34-8.54-3.9-10.37-.37-.37-.49-.49-.49-.73s.24-.37.73-.37c1.95,0,4.76,1.22,7.32,3.29,3.9,3.17,5.73,6.71,5.73,11.59,0,4.03-.37,5.12-5.49,18.05-4.51,11.46-6.1,18.05-6.1,26.22s1.46,13.9,3.54,13.9c1.22,0,1.95-.85,2.81-3.66l3.78-11.34ZM1500.57,823.33s0,.12-.12.24c-.12.73-.37,2.56-.37,3.9,0,10.37,7.44,15.49,22.32,15.49,5.49,0,11.34-.85,17.08-2.32,2.8-.73,3.42-.85,4.51-.85,3.29,0,5.61,2.07,5.61,5,0,4.63-6.46,6.95-18.66,6.95-11.22,0-20.37-1.59-25-4.51-5.37-3.42-8.66-9.39-8.66-15.98,0-5.24.98-8.54,2.56-8.54.37,0,.73.24.73.61ZM1541.67,790.27c0,1.59-1.71,2.68-4.88,3.05-6.1.85-15.37,1.59-20.98,1.59-6.46,0-10.85-1.59-14.88-5.61-1.22-1.22-2.44-3.54-2.44-4.51,0-.24.37-.49.61-.49s.49.12.73.61c1.34,2.32,5.49,3.78,10.37,3.78,7.32,0,16.71-2.07,21.95-4.76.85-.49,1.22-.61,1.95-.61,2.68,0,7.56,4.39,7.56,6.95Z"/><path class="cls-1" d="M1575.21,778.57c-.24.12-.37.12-.49.12-.24,0-.49-.24-.49-.49,0-.73,2.07-1.46,4.39-1.46,6.95,0,13.29,5.37,13.29,11.22,0,2.32-.37,4.51-1.59,9.88-1.71,7.56-2.2,12.32-2.2,19.39,0,9.27,1.83,16.22,5.61,21.34,2.07,2.8,4.88,4.88,6.71,4.88,1.59,0,1.95-.37,5.61-8.54,5.61-12.07,7.81-16.1,8.78-16.1.37,0,.85.49.85.98s-.12,1.1-.49,1.83c-2.56,5.85-5.49,17.32-5.49,21.83,0,2.93.85,5.85,2.2,7.68.73,1.22.85,1.34.85,1.95,0,1.46-2.2,2.93-4.51,2.8-3.54-.12-9.03-2.44-12.81-5.37-8.78-6.83-13.9-20.86-13.9-37.56,0-5.25.49-13.17,1.1-19.27.12-1.83.24-3.29.24-4.39,0-5.49-3.66-10.73-7.32-10.73h-.37ZM1634,800.4c0-.98,3.9-1.83,8.17-1.83,13.54,0,27.69,12.93,27.69,25.37,0,4.88-2.93,8.29-7.07,8.29-2.2,0-3.05-1.1-3.05-4.15.12-14.88-10.37-27.08-23.29-27.08-2.32,0-2.44,0-2.44-.61Z"/><path class="cls-1" d="M1748.16,852.6c5.49-2.68,7.81-4.51,10.12-8.29,2.32-3.9,3.66-8.54,3.66-13.42,0-12.07-6.71-18.78-18.78-18.78-11.22,0-19.03,3.9-26.95,13.54-4.63,5.61-5.85,7.68-9.15,14.39-.98,2.2-2.44,3.29-4.39,3.29-2.07,0-5.25-3.66-5.25-6.22,0-1.34.98-2.93,3.42-5.37,16.1-16.71,17.2-18.05,34.64-41.22,7.07-9.15,7.2-9.27,7.2-11.22,0-1.71-1.1-2.81-2.68-2.81-3.78,0-6.71,1.59-19.27,10.37-2.32,1.71-3.42,2.2-4.63,2.2-1.58,0-4.15-1.58-5.73-3.54-1.59-1.95-2.2-3.9-2.2-6.59,0-2.2.24-2.93.98-2.93.37,0,.37.12.61,1.1.24,1.71,2.2,3.05,4.63,3.05,5,0,19.88-5.24,25.25-8.9,1.59-1.22,2.44-1.46,4.15-1.46,4.88,0,13.54,5.85,13.54,9.27,0,1.22-.61,2.07-1.95,2.68-5.24,2.32-12.07,8.42-22.08,19.64-5.98,6.71-7.68,8.9-7.68,9.88,0,.49.37,1.1.73,1.1.12,0,.37-.12.61-.24.12,0,.37-.12.61-.24s.85-.37,1.71-.73c5.98-2.44,11.59-3.66,17.56-3.66,14.39,0,24.64,9.88,24.64,23.66,0,8.05-3.29,15.37-9.15,20.12-6.95,5.73-16.83,9.15-26.34,9.15-5.73,0-11.34-1.71-14.64-4.51-2.32-1.95-3.29-4.15-3.29-7.32,0-5.61,4.76-9.27,11.95-9.27,8.17,0,14.15,4.03,17.68,12.07l.12.37.37.85ZM1740.35,854.43c-1.34-7.44-4.88-11.22-10.49-11.22-3.42,0-5.61,1.95-5.61,4.88,0,4.03,4.63,6.71,11.71,6.71,1.34,0,1.83,0,3.66-.24l.73-.12Z"/><path class="cls-1" d="M1823.96,850.04c0,8.42-6.59,14.88-15.12,14.88-7.93,0-14.64-6.83-14.64-14.88s6.71-14.76,14.88-14.76,14.88,6.59,14.88,14.76ZM1799.32,850.4c0,5,4.51,9.39,9.76,9.39s9.76-4.51,9.76-9.76-4.39-9.76-9.76-9.76-9.76,4.51-9.76,10.12Z"/></g></g></svg>